<svg xmlns="http://www.w3.org/2000/svg" xmlns:xlink="http://www.w3.org/1999/xlink" width="1130" zoomAndPan="magnify" viewBox="0 0 847.5 637.499986" height="850" preserveAspectRatio="xMidYMid meet" version="1.2"><defs><clipPath id="db557da096"><path d="M 0.0820312 0 L 649 0 L 649 441 L 0.0820312 441 Z M 0.0820312 0 "/></clipPath><clipPath id="d2264f24f4"><path d="M -7.890625 -91.410156 L 677.746094 271.246094 L 588.046875 440.835938 L -97.59375 78.179688 Z M -7.890625 -91.410156 "/></clipPath><clipPath id="307accf5a6"><path d="M -7.890625 -91.410156 L 677.746094 271.246094 L 588.046875 440.835938 L -97.59375 78.179688 Z M -7.890625 -91.410156 "/></clipPath><clipPath id="b22ac87957"><path d="M 0.0820312 39 L 659 39 L 659 450 L 0.0820312 450 Z M 0.0820312 39 "/></clipPath><clipPath id="05b1198f24"><path d="M -75.484375 25.089844 L 677.523438 263.613281 L 618.683594 449.363281 L -134.324219 210.839844 Z M -75.484375 25.089844 "/></clipPath><clipPath id="00f15a16c4"><path d="M -75.484375 25.089844 L 677.523438 263.613281 L 618.683594 449.363281 L -134.324219 210.839844 Z M -75.484375 25.089844 "/></clipPath><clipPath id="675e7f25ab"><path d="M 0.0820312 159 L 695 159 L 695 478 L 0.0820312 478 Z M 0.0820312 159 "/></clipPath><clipPath id="a3f3e84a23"><path d="M -71.25 144.078125 L 705.78125 285.976562 L 670.777344 477.652344 L -106.253906 335.753906 Z M -71.25 144.078125 "/></clipPath><clipPath id="035575da7a"><path d="M -71.25 144.078125 L 705.78125 285.976562 L 670.777344 477.652344 L -106.253906 335.753906 Z M -71.25 144.078125 "/></clipPath><clipPath id="046b03d73e"><path d="M 0.0820312 317 L 816 317 L 816 637 L 0.0820312 637 Z M 0.0820312 317 "/></clipPath><clipPath id="62258f1d4c"><path d="M 774.289062 698.863281 L -106.480469 524.855469 L -65.230469 316.054688 L 815.539062 490.066406 Z M 774.289062 698.863281 "/></clipPath><clipPath id="6f7435565f"><path d="M 774.289062 698.863281 L -106.480469 524.855469 L -65.230469 316.054688 L 815.539062 490.066406 Z M 774.289062 698.863281 "/></clipPath><clipPath id="c8b4522be5"><path d="M 554 284 L 846.917969 284 L 846.917969 637 L 554 637 Z M 554 284 "/></clipPath><clipPath id="4b302141a8"><path d="M 690.820312 284.671875 L 917.546875 601.621094 L 781.625 698.851562 L 554.894531 381.902344 Z M 690.820312 284.671875 "/></clipPath><clipPath id="451ee7a230"><path d="M 523.628906 50.957031 L 917.351562 601.351562 L 781.429688 698.582031 L 387.707031 148.1875 Z M 523.628906 50.957031 "/></clipPath></defs><g id="8e26808447"><g clip-rule="nonzero" clip-path="url(#db557da096)"><g clip-rule="nonzero" clip-path="url(#d2264f24f4)"><g clip-rule="nonzero" clip-path="url(#307accf5a6)"><path style=" stroke:none;fill-rule:nonzero;fill:#ffad7d;fill-opacity:1;" d="M -14.875 -78.210938 L 5.425781 -47.492188 C 25.730469 -16.773438 66.332031 44.664062 122.121094 77.390625 C 177.871094 110.191406 248.847656 114.207031 316.644531 124.234375 C 384.4375 134.265625 449.050781 150.3125 503.914062 184.789062 C 558.734375 219.34375 603.769531 272.402344 626.289062 298.933594 L 648.804688 325.464844 L 587.976562 440.464844 L 559.417969 425.355469 C 530.859375 410.25 473.738281 380.039062 416.621094 349.828125 C 359.5 319.613281 302.378906 289.402344 245.261719 259.191406 C 188.140625 228.976562 131.023438 198.765625 73.902344 168.554688 C 16.785156 138.339844 -40.335938 108.128906 -68.894531 93.023438 L -97.453125 77.917969 Z M -14.875 -78.210938 "/></g></g></g><g clip-rule="nonzero" clip-path="url(#b22ac87957)"><g clip-rule="nonzero" clip-path="url(#05b1198f24)"><g clip-rule="nonzero" clip-path="url(#00f15a16c4)"><path style=" stroke:none;fill-rule:nonzero;fill:#f8813c;fill-opacity:1;" d="M -80.070312 39.566406 L -54.117188 66.632812 C -28.167969 93.695312 23.734375 147.820312 85.609375 170.453125 C 147.460938 193.171875 219.3125 184.3125 289.078125 182.050781 C 358.839844 179.792969 426.511719 184.132812 487.78125 208.6875 C 549.023438 233.328125 603.835938 278.261719 631.242188 300.730469 L 658.648438 323.199219 L 618.691406 449.335938 L 587.316406 439.398438 C 555.941406 429.460938 493.191406 409.582031 430.441406 389.707031 C 367.691406 369.828125 304.9375 349.953125 242.1875 330.074219 C 179.4375 310.199219 116.6875 290.320312 53.9375 270.445312 C -8.8125 250.566406 -71.5625 230.691406 -102.9375 220.75 L -134.3125 210.8125 Z M -80.070312 39.566406 "/></g></g></g><g clip-rule="nonzero" clip-path="url(#675e7f25ab)"><g clip-rule="nonzero" clip-path="url(#a3f3e84a23)"><g clip-rule="nonzero" clip-path="url(#035575da7a)"><path style=" stroke:none;fill-rule:nonzero;fill:#e8884e;fill-opacity:1;" d="M -73.976562 159.019531 L -44.828125 182.601562 C -15.679688 206.183594 42.621094 253.351562 106.851562 268.019531 C 171.070312 282.777344 241.238281 264.949219 310.160156 253.929688 C 379.085938 242.914062 446.765625 238.703125 510.636719 255.355469 C 574.492188 272.09375 634.523438 309.777344 664.539062 328.621094 L 694.550781 347.464844 L 670.78125 477.625 L 638.40625 471.710938 C 606.03125 465.800781 541.277344 453.976562 476.527344 442.148438 C 411.773438 430.324219 347.019531 418.5 282.269531 406.675781 C 217.515625 394.851562 152.761719 383.027344 88.011719 371.203125 C 23.257812 359.378906 -41.496094 347.550781 -73.871094 341.640625 L -106.246094 335.726562 Z M -73.976562 159.019531 "/></g></g></g><g clip-rule="nonzero" clip-path="url(#046b03d73e)"><g clip-rule="nonzero" clip-path="url(#62258f1d4c)"><g clip-rule="nonzero" clip-path="url(#6f7435565f)"><path style=" stroke:none;fill-rule:nonzero;fill:#e8884e;fill-opacity:1;" d="M 774.742188 697.640625 L 815.554688 491.050781 L -64.296875 317.222656 L -77.996094 386.554688 L -81.609375 404.855469 C -81.992188 406.777344 -83.414062 410.304688 -82.683594 412.179688 C -81.433594 415.367188 -74.960938 418.410156 -72.238281 420.347656 C -62.308594 427.414062 -51.871094 433.5 -41.285156 439.515625 C 3.609375 465.03125 53.195312 482.222656 104.402344 488.742188 C 189.15625 499.539062 275.195312 495.941406 360.429688 501.429688 C 438.609375 506.464844 514.824219 522.058594 588.238281 549.597656 C 627.0625 564.160156 666.226562 581.441406 699.996094 605.828125 C 720.753906 620.820312 739.746094 641.152344 753.902344 662.441406 C 758.777344 669.769531 763.179688 677.585938 767.527344 685.246094 C 769.792969 689.238281 771.707031 694.199219 774.742188 697.640625 Z M 774.742188 697.640625 "/></g></g></g><g clip-rule="nonzero" clip-path="url(#c8b4522be5)"><g clip-rule="nonzero" clip-path="url(#4b302141a8)"><g clip-rule="nonzero" clip-path="url(#451ee7a230)"><path style=" stroke:none;fill-rule:nonzero;fill:#e8884e;fill-opacity:1;" d="M 513.035156 58.535156 L 516.902344 90.421875 C 520.769531 122.304688 528.5 186.078125 559.277344 233.367188 C 589.996094 280.695312 643.816406 311.5 692.808594 345.757812 C 741.800781 380.011719 785.964844 417.722656 815.335938 466.015625 C 844.648438 514.355469 859.105469 573.316406 866.332031 602.796875 L 873.558594 632.277344 L 781.261719 698.304688 L 764.863281 675.382812 C 748.464844 652.460938 715.671875 606.613281 682.878906 560.769531 C 650.082031 514.925781 617.289062 469.082031 584.496094 423.238281 C 551.699219 377.394531 518.90625 331.550781 486.113281 285.707031 C 453.316406 239.859375 420.523438 194.015625 404.125 171.09375 L 387.726562 148.171875 Z M 513.035156 58.535156 "/></g></g></g></g></svg>