<svg xmlns="http://www.w3.org/2000/svg" xmlns:xlink="http://www.w3.org/1999/xlink" width="1920" zoomAndPan="magnify" viewBox="0 0 1440 809.999993" height="1080" preserveAspectRatio="xMidYMid meet" version="1.2"><defs><clipPath id="076d6b7386"><path d="M 0 169 L 646 169 L 646 680 L 0 680 Z M 0 169 "/></clipPath><clipPath id="4ae09de9b6"><path d="M 0.292969 156.742188 L 673.875 513.019531 L 585.855469 679.425781 L -87.722656 323.148438 Z M 0.292969 156.742188 "/></clipPath><clipPath id="bc9fba1ffb"><path d="M 0.292969 156.742188 L 673.875 513.019531 L 585.855469 679.425781 L -87.722656 323.148438 Z M 0.292969 156.742188 "/></clipPath><clipPath id="ab7ad95cef"><path d="M 0 285 L 656 285 L 656 689 L 0 689 Z M 0 285 "/></clipPath><clipPath id="134a059ac6"><path d="M -66.121094 271.210938 L 673.890625 505.617188 L 615.910156 688.65625 L -124.097656 454.246094 Z M -66.121094 271.210938 "/></clipPath><clipPath id="f90cb23766"><path d="M -66.121094 271.210938 L 673.890625 505.617188 L 615.910156 688.65625 L -124.097656 454.246094 Z M -66.121094 271.210938 "/></clipPath><clipPath id="8f89339951"><path d="M 0 402 L 691 402 L 691 717 L 0 717 Z M 0 402 "/></clipPath><clipPath id="6776b342dc"><path d="M -61.960938 388.125 L 701.660156 527.574219 L 667.171875 716.449219 L -96.453125 577 Z M -61.960938 388.125 "/></clipPath><clipPath id="b64a8d6b73"><path d="M -61.960938 388.125 L 701.660156 527.574219 L 667.171875 716.449219 L -96.453125 577 Z M -61.960938 388.125 "/></clipPath><clipPath id="2a3a23b2b6"><path d="M 0 558 L 810 558 L 810 810 L 0 810 Z M 0 558 "/></clipPath><clipPath id="ef8f591b73"><path d="M 768.855469 933.242188 L -96.421875 762.292969 L -55.863281 557.007812 L 809.410156 727.960938 Z M 768.855469 933.242188 "/></clipPath><clipPath id="a34fa7f5f5"><path d="M 768.855469 933.242188 L -96.421875 762.292969 L -55.863281 557.007812 L 809.410156 727.960938 Z M 768.855469 933.242188 "/></clipPath><clipPath id="fdbc2e036b"><path d="M 505 498 L 872 498 L 872 810 L 505 810 Z M 505 498 "/></clipPath><clipPath id="b25795c28c"><path d="M 661.941406 498.242188 L 922.011719 861.800781 L 765.851562 973.507812 L 505.785156 609.949219 Z M 661.941406 498.242188 "/></clipPath><clipPath id="a4c84f492f"><path d="M 470.261719 230.289062 L 921.890625 861.632812 L 765.730469 973.339844 L 314.105469 341.996094 Z M 470.261719 230.289062 "/></clipPath></defs><g id="576c88e138"><g clip-rule="nonzero" clip-path="url(#076d6b7386)"><g clip-rule="nonzero" clip-path="url(#4ae09de9b6)"><g clip-rule="nonzero" clip-path="url(#bc9fba1ffb)"><path style=" stroke:none;fill-rule:nonzero;fill:#ffad7d;fill-opacity:1;" d="M -6.566406 169.714844 L 13.378906 199.898438 C 33.328125 230.082031 73.222656 290.449219 128.042969 322.601562 C 182.820312 354.832031 252.558594 358.777344 319.171875 368.632812 C 385.785156 378.488281 449.269531 394.253906 503.179688 428.132812 C 557.046875 462.082031 601.296875 514.21875 623.421875 540.285156 L 645.546875 566.351562 L 585.777344 679.347656 L 557.714844 664.507812 C 529.652344 649.664062 473.53125 619.976562 417.40625 590.292969 C 361.28125 560.605469 305.160156 530.921875 249.035156 501.234375 C 192.910156 471.546875 136.785156 441.863281 80.664062 412.175781 C 24.539062 382.492188 -31.585938 352.804688 -59.648438 337.960938 L -87.707031 323.121094 Z M -6.566406 169.714844 "/></g></g></g><g clip-rule="nonzero" clip-path="url(#ab7ad95cef)"><g clip-rule="nonzero" clip-path="url(#134a059ac6)"><g clip-rule="nonzero" clip-path="url(#f90cb23766)"><path style=" stroke:none;fill-rule:nonzero;fill:#f8813c;fill-opacity:1;" d="M -70.632812 285.460938 L -45.144531 312.082031 C -19.652344 338.699219 31.328125 391.9375 92.125 414.179688 C 152.898438 436.507812 223.515625 427.757812 292.074219 425.503906 C 360.636719 423.25 427.136719 427.488281 487.335938 451.621094 C 547.511719 475.839844 601.355469 520.035156 628.28125 542.132812 L 655.203125 564.230469 L 615.878906 688.367188 L 585.050781 678.601562 C 554.222656 668.835938 492.5625 649.304688 430.90625 629.773438 C 369.246094 610.242188 307.589844 590.710938 245.929688 571.179688 C 184.273438 551.648438 122.613281 532.117188 60.957031 512.585938 C -0.703125 493.058594 -62.359375 473.527344 -93.191406 463.761719 L -124.019531 453.996094 Z M -70.632812 285.460938 "/></g></g></g><g clip-rule="nonzero" clip-path="url(#8f89339951)"><g clip-rule="nonzero" clip-path="url(#6776b342dc)"><g clip-rule="nonzero" clip-path="url(#b64a8d6b73)"><path style=" stroke:none;fill-rule:nonzero;fill:#e8884e;fill-opacity:1;" d="M -64.644531 402.832031 L -36.007812 426.03125 C -7.371094 449.234375 49.902344 495.632812 113.015625 510.050781 C 176.113281 524.554688 245.070312 506.992188 312.800781 496.128906 C 380.53125 485.265625 447.039062 481.105469 509.796875 497.476562 C 572.539062 513.929688 631.515625 551 661.007812 569.535156 L 690.496094 588.070312 L 667.101562 716.167969 L 635.289062 710.359375 C 603.476562 704.550781 539.851562 692.929688 476.226562 681.3125 C 412.601562 669.691406 348.976562 658.074219 285.347656 646.453125 C 221.722656 634.835938 158.097656 623.21875 94.472656 611.597656 C 30.847656 599.980469 -32.777344 588.359375 -64.589844 582.550781 L -96.402344 576.742188 Z M -64.644531 402.832031 "/></g></g></g><g clip-rule="nonzero" clip-path="url(#2a3a23b2b6)"><g clip-rule="nonzero" clip-path="url(#ef8f591b73)"><g clip-rule="nonzero" clip-path="url(#a34fa7f5f5)"><path style=" stroke:none;fill-rule:nonzero;fill:#e8884e;fill-opacity:1;" d="M 769.296875 932.042969 L 809.402344 729.050781 L -55.128906 558.246094 L -68.589844 626.371094 L -72.140625 644.355469 C -72.515625 646.242188 -73.914062 649.710938 -73.191406 651.550781 C -71.96875 654.683594 -65.605469 657.675781 -62.933594 659.578125 C -53.175781 666.523438 -42.917969 672.5 -32.519531 678.410156 C 11.59375 703.484375 60.320312 720.375 110.632812 726.78125 C 193.910156 737.390625 278.453125 733.855469 362.199219 739.25 C 439.019531 744.195312 513.910156 759.515625 586.042969 786.578125 C 624.1875 800.886719 662.675781 817.863281 695.855469 841.828125 C 716.25 856.558594 734.914062 876.535156 748.820312 897.453125 C 753.609375 904.65625 757.9375 912.335938 762.207031 919.859375 C 764.4375 923.785156 766.316406 928.660156 769.296875 932.039062 Z M 769.296875 932.042969 "/></g></g></g><g clip-rule="nonzero" clip-path="url(#fdbc2e036b)"><g clip-rule="nonzero" clip-path="url(#b25795c28c)"><g clip-rule="nonzero" clip-path="url(#a4c84f492f)"><path style=" stroke:none;fill-rule:nonzero;fill:#e8884e;fill-opacity:1;" d="M 458.105469 238.984375 L 462.539062 275.574219 C 466.976562 312.160156 475.851562 385.335938 511.164062 439.597656 C 546.410156 493.90625 608.167969 529.25 664.386719 568.558594 C 720.601562 607.867188 771.277344 651.136719 804.980469 706.550781 C 838.613281 762.015625 855.199219 829.671875 863.496094 863.5 L 871.789062 897.328125 L 765.878906 973.089844 L 747.0625 946.789062 C 728.25 920.484375 690.617188 867.882812 652.988281 815.277344 C 615.359375 762.675781 577.730469 710.070312 540.097656 657.464844 C 502.46875 604.863281 464.839844 552.257812 427.210938 499.652344 C 389.578125 447.050781 351.949219 394.445312 333.132812 368.144531 L 314.320312 341.839844 Z M 458.105469 238.984375 "/></g></g></g></g></svg>