<svg xmlns="http://www.w3.org/2000/svg" xmlns:xlink="http://www.w3.org/1999/xlink" width="1130" zoomAndPan="magnify" viewBox="0 0 847.5 344.999992" height="460" preserveAspectRatio="xMidYMid meet" version="1.2"><defs><clipPath id="9e02f5d14b"><path d="M 0 47 L 847 47 L 847 315.214844 L 0 315.214844 Z M 0 47 "/></clipPath><clipPath id="9b99c42f77"><path d="M 0 161 L 847 161 L 847 300 L 0 300 Z M 0 161 "/></clipPath><clipPath id="39521b81c2"><path d="M 0 0.101562 L 847 0.101562 L 847 214 L 0 214 Z M 0 0.101562 "/></clipPath><filter x="0%" y="0%" width="100%" filterUnits="objectBoundingBox" id="0d634c1b07" height="100%"><feColorMatrix values="0 0 0 0 1 0 0 0 0 1 0 0 0 0 1 0 0 0 1 0" type="matrix" in="SourceGraphic"/></filter><clipPath id="e520f9b8ef"><path d="M 0 0.101562 L 847 0.101562 L 847 213.816406 L 0 213.816406 Z M 0 0.101562 "/></clipPath><clipPath id="3d5682c1d6"><rect x="0" width="847" y="0" height="214"/></clipPath></defs><g id="e0573a27bb"><g clip-rule="nonzero" clip-path="url(#9e02f5d14b)"><path style=" stroke:none;fill-rule:nonzero;fill:#ff914d;fill-opacity:1;" d="M -12.261719 47.824219 C 136.628906 169.453125 258.765625 196.414062 345.484375 196.816406 C 427.40625 197.1875 480.269531 173.902344 627.265625 165.449219 C 704.6875 160.996094 782.023438 162.15625 859.273438 168.929688 L 859.273438 315.1875 C 780.097656 265.863281 710.566406 247.480469 658.449219 240.511719 C 487.339844 217.617188 397.421875 303.476562 204.175781 299.074219 C 112.023438 296.976562 36.980469 275.273438 -12.273438 257.109375 Z M -12.261719 47.824219 "/></g><g clip-rule="nonzero" clip-path="url(#9b99c42f77)"><path style=" stroke:none;fill-rule:nonzero;fill:#ffde59;fill-opacity:1;" d="M -12.261719 176.960938 C 23.921875 200.589844 80.328125 230.898438 153.367188 243.289062 C 277.324219 264.308594 363.679688 219.402344 481.835938 189.988281 C 567.796875 168.585938 693.960938 149.859375 859.277344 168.917969 C 702.671875 171.308594 582.839844 198.273438 501.664062 222.835938 C 380.132812 259.609375 300.027344 304.371094 172.578125 299.0625 C 93.367188 295.765625 29.324219 274.476562 -12.261719 257.097656 Z M -12.261719 176.960938 "/></g><g clip-rule="nonzero" clip-path="url(#39521b81c2)"><g mask="url(#314d1cbe39)" transform="matrix(1,0,0,1,0,-0.000000000000012115)"><g clip-path="url(#3d5682c1d6)"><g clip-rule="nonzero" clip-path="url(#e520f9b8ef)"><path style=" stroke:none;fill-rule:nonzero;fill:#ffbd59;fill-opacity:1;" d="M -12.261719 0.101562 L -12.261719 139.546875 C 36.011719 161.714844 114.210938 192.289062 214.230469 206.488281 C 339.851562 224.308594 412.058594 203.816406 593.792969 198.878906 C 654.511719 197.234375 745.257812 196.839844 857.105469 204.621094 L 857.105469 153.488281 C 731.40625 151.449219 628.289062 155.175781 556.328125 159.066406 C 359.972656 169.6875 278.945312 187.851562 177.972656 148.851562 C 86.472656 113.488281 25.289062 49.222656 -12.261719 0.101562 Z M -12.261719 0.101562 "/></g></g><mask id="314d1cbe39"><g filter="url(#0d634c1b07)"><rect x="0" width="847.5" y="0" height="344.999992" style="fill:#000000;fill-opacity:0.5;stroke:none;"/></g></mask></g></g></g></svg>