<svg xmlns="http://www.w3.org/2000/svg" xmlns:xlink="http://www.w3.org/1999/xlink" width="500" zoomAndPan="magnify" viewBox="0 0 375 374.999991" height="500" preserveAspectRatio="xMidYMid meet" version="1.2"><defs><clipPath id="bb9f5e0a40"><path d="M 79 29 L 100 29 L 100 130 L 79 130 Z M 79 29 "/></clipPath><clipPath id="b76125563b"><path d="M -76.789062 187.496094 L 187.316406 -76.605469 L 451.421875 187.496094 L 187.316406 451.601562 Z M -76.789062 187.496094 "/></clipPath><clipPath id="da9d3b7ee2"><path d="M -76.789062 187.496094 L 187.316406 -76.605469 L 451.421875 187.496094 L 187.316406 451.601562 Z M -76.789062 187.496094 "/></clipPath><clipPath id="0cc443b947"><path d="M 79 179 L 100 179 L 100 261 L 79 261 Z M 79 179 "/></clipPath><clipPath id="7803582b69"><path d="M -76.789062 187.496094 L 187.316406 -76.605469 L 451.421875 187.496094 L 187.316406 451.601562 Z M -76.789062 187.496094 "/></clipPath><clipPath id="a3a7a3e877"><path d="M -76.789062 187.496094 L 187.316406 -76.605469 L 451.421875 187.496094 L 187.316406 451.601562 Z M -76.789062 187.496094 "/></clipPath><clipPath id="bed616ca76"><path d="M 79 310 L 100 310 L 100 346 L 79 346 Z M 79 310 "/></clipPath><clipPath id="7f07150b25"><path d="M -76.789062 187.496094 L 187.316406 -76.605469 L 451.421875 187.496094 L 187.316406 451.601562 Z M -76.789062 187.496094 "/></clipPath><clipPath id="ae34389712"><path d="M -76.789062 187.496094 L 187.316406 -76.605469 L 451.421875 187.496094 L 187.316406 451.601562 Z M -76.789062 187.496094 "/></clipPath><clipPath id="544829f3fc"><path d="M 144 245 L 166 245 L 166 346 L 144 346 Z M 144 245 "/></clipPath><clipPath id="6a647b590f"><path d="M -76.789062 187.496094 L 187.316406 -76.605469 L 451.421875 187.496094 L 187.316406 451.601562 Z M -76.789062 187.496094 "/></clipPath><clipPath id="3075648216"><path d="M -76.789062 187.496094 L 187.316406 -76.605469 L 451.421875 187.496094 L 187.316406 451.601562 Z M -76.789062 187.496094 "/></clipPath><clipPath id="8d4b82ee78"><path d="M 144 114 L 166 114 L 166 196 L 144 196 Z M 144 114 "/></clipPath><clipPath id="e3572ed0ee"><path d="M -76.789062 187.496094 L 187.316406 -76.605469 L 451.421875 187.496094 L 187.316406 451.601562 Z M -76.789062 187.496094 "/></clipPath><clipPath id="3a6c34dac5"><path d="M -76.789062 187.496094 L 187.316406 -76.605469 L 451.421875 187.496094 L 187.316406 451.601562 Z M -76.789062 187.496094 "/></clipPath><clipPath id="ee96d269d9"><path d="M 144 29 L 166 29 L 166 65 L 144 65 Z M 144 29 "/></clipPath><clipPath id="4b255912e3"><path d="M -76.789062 187.496094 L 187.316406 -76.605469 L 451.421875 187.496094 L 187.316406 451.601562 Z M -76.789062 187.496094 "/></clipPath><clipPath id="ffa4c8fad6"><path d="M -76.789062 187.496094 L 187.316406 -76.605469 L 451.421875 187.496094 L 187.316406 451.601562 Z M -76.789062 187.496094 "/></clipPath><clipPath id="7303eba05a"><path d="M 274 245 L 296 245 L 296 346 L 274 346 Z M 274 245 "/></clipPath><clipPath id="6f32dfed01"><path d="M -76.789062 187.496094 L 187.316406 -76.605469 L 451.421875 187.496094 L 187.316406 451.601562 Z M -76.789062 187.496094 "/></clipPath><clipPath id="a069610b9f"><path d="M -76.789062 187.496094 L 187.316406 -76.605469 L 451.421875 187.496094 L 187.316406 451.601562 Z M -76.789062 187.496094 "/></clipPath><clipPath id="f6c1c6c071"><path d="M 274 114 L 296 114 L 296 196 L 274 196 Z M 274 114 "/></clipPath><clipPath id="1b9e13157a"><path d="M -76.789062 187.496094 L 187.316406 -76.605469 L 451.421875 187.496094 L 187.316406 451.601562 Z M -76.789062 187.496094 "/></clipPath><clipPath id="eca20c699d"><path d="M -76.789062 187.496094 L 187.316406 -76.605469 L 451.421875 187.496094 L 187.316406 451.601562 Z M -76.789062 187.496094 "/></clipPath><clipPath id="91e0773357"><path d="M 274 29 L 296 29 L 296 65 L 274 65 Z M 274 29 "/></clipPath><clipPath id="55d21b32f1"><path d="M -76.789062 187.496094 L 187.316406 -76.605469 L 451.421875 187.496094 L 187.316406 451.601562 Z M -76.789062 187.496094 "/></clipPath><clipPath id="d23507755f"><path d="M -76.789062 187.496094 L 187.316406 -76.605469 L 451.421875 187.496094 L 187.316406 451.601562 Z M -76.789062 187.496094 "/></clipPath><clipPath id="d98bcb635c"><path d="M 209 29 L 231 29 L 231 130 L 209 130 Z M 209 29 "/></clipPath><clipPath id="54d78562c5"><path d="M -76.789062 187.496094 L 187.316406 -76.605469 L 451.421875 187.496094 L 187.316406 451.601562 Z M -76.789062 187.496094 "/></clipPath><clipPath id="ab0a2c2c3a"><path d="M -76.789062 187.496094 L 187.316406 -76.605469 L 451.421875 187.496094 L 187.316406 451.601562 Z M -76.789062 187.496094 "/></clipPath><clipPath id="1b85f34b12"><path d="M 209 179 L 231 179 L 231 261 L 209 261 Z M 209 179 "/></clipPath><clipPath id="d729662585"><path d="M -76.789062 187.496094 L 187.316406 -76.605469 L 451.421875 187.496094 L 187.316406 451.601562 Z M -76.789062 187.496094 "/></clipPath><clipPath id="48d65143b8"><path d="M -76.789062 187.496094 L 187.316406 -76.605469 L 451.421875 187.496094 L 187.316406 451.601562 Z M -76.789062 187.496094 "/></clipPath><clipPath id="d8d34d20f7"><path d="M 209 310 L 231 310 L 231 346 L 209 346 Z M 209 310 "/></clipPath><clipPath id="1853f7ab86"><path d="M -76.789062 187.496094 L 187.316406 -76.605469 L 451.421875 187.496094 L 187.316406 451.601562 Z M -76.789062 187.496094 "/></clipPath><clipPath id="6eb2ec7f9b"><path d="M -76.789062 187.496094 L 187.316406 -76.605469 L 451.421875 187.496094 L 187.316406 451.601562 Z M -76.789062 187.496094 "/></clipPath><clipPath id="b4bfef1652"><path d="M 29 275 L 130 275 L 130 296 L 29 296 Z M 29 275 "/></clipPath><clipPath id="593b5e1650"><path d="M -76.789062 187.496094 L 187.316406 -76.605469 L 451.421875 187.496094 L 187.316406 451.601562 Z M -76.789062 187.496094 "/></clipPath><clipPath id="dc20ac1f11"><path d="M -76.789062 187.496094 L 187.316406 -76.605469 L 451.421875 187.496094 L 187.316406 451.601562 Z M -76.789062 187.496094 "/></clipPath><clipPath id="7160654494"><path d="M 179 275 L 261 275 L 261 296 L 179 296 Z M 179 275 "/></clipPath><clipPath id="8a186001d7"><path d="M -76.789062 187.496094 L 187.316406 -76.605469 L 451.421875 187.496094 L 187.316406 451.601562 Z M -76.789062 187.496094 "/></clipPath><clipPath id="340a016e6a"><path d="M -76.789062 187.496094 L 187.316406 -76.605469 L 451.421875 187.496094 L 187.316406 451.601562 Z M -76.789062 187.496094 "/></clipPath><clipPath id="ed58365077"><path d="M 310 275 L 346 275 L 346 296 L 310 296 Z M 310 275 "/></clipPath><clipPath id="3f6259c41f"><path d="M -76.789062 187.496094 L 187.316406 -76.605469 L 451.421875 187.496094 L 187.316406 451.601562 Z M -76.789062 187.496094 "/></clipPath><clipPath id="755978272c"><path d="M -76.789062 187.496094 L 187.316406 -76.605469 L 451.421875 187.496094 L 187.316406 451.601562 Z M -76.789062 187.496094 "/></clipPath><clipPath id="03806ee918"><path d="M 244 209 L 346 209 L 346 231 L 244 231 Z M 244 209 "/></clipPath><clipPath id="d3ff9d88f6"><path d="M -76.789062 187.496094 L 187.316406 -76.605469 L 451.421875 187.496094 L 187.316406 451.601562 Z M -76.789062 187.496094 "/></clipPath><clipPath id="6b35efd71a"><path d="M -76.789062 187.496094 L 187.316406 -76.605469 L 451.421875 187.496094 L 187.316406 451.601562 Z M -76.789062 187.496094 "/></clipPath><clipPath id="35f5272142"><path d="M 114 209 L 196 209 L 196 231 L 114 231 Z M 114 209 "/></clipPath><clipPath id="c1820ec8f5"><path d="M -76.789062 187.496094 L 187.316406 -76.605469 L 451.421875 187.496094 L 187.316406 451.601562 Z M -76.789062 187.496094 "/></clipPath><clipPath id="128cbe0e3f"><path d="M -76.789062 187.496094 L 187.316406 -76.605469 L 451.421875 187.496094 L 187.316406 451.601562 Z M -76.789062 187.496094 "/></clipPath><clipPath id="6fbddf6d2c"><path d="M 29 209 L 65 209 L 65 231 L 29 231 Z M 29 209 "/></clipPath><clipPath id="24001e609e"><path d="M -76.789062 187.496094 L 187.316406 -76.605469 L 451.421875 187.496094 L 187.316406 451.601562 Z M -76.789062 187.496094 "/></clipPath><clipPath id="6f19fc1d34"><path d="M -76.789062 187.496094 L 187.316406 -76.605469 L 451.421875 187.496094 L 187.316406 451.601562 Z M -76.789062 187.496094 "/></clipPath><clipPath id="3baeac103b"><path d="M 244 79 L 346 79 L 346 100 L 244 100 Z M 244 79 "/></clipPath><clipPath id="943f2fcd7a"><path d="M -76.789062 187.496094 L 187.316406 -76.605469 L 451.421875 187.496094 L 187.316406 451.601562 Z M -76.789062 187.496094 "/></clipPath><clipPath id="7e13e1d82f"><path d="M -76.789062 187.496094 L 187.316406 -76.605469 L 451.421875 187.496094 L 187.316406 451.601562 Z M -76.789062 187.496094 "/></clipPath><clipPath id="23e66cde78"><path d="M 114 79 L 196 79 L 196 100 L 114 100 Z M 114 79 "/></clipPath><clipPath id="d23b174295"><path d="M -76.789062 187.496094 L 187.316406 -76.605469 L 451.421875 187.496094 L 187.316406 451.601562 Z M -76.789062 187.496094 "/></clipPath><clipPath id="394840246e"><path d="M -76.789062 187.496094 L 187.316406 -76.605469 L 451.421875 187.496094 L 187.316406 451.601562 Z M -76.789062 187.496094 "/></clipPath><clipPath id="68f7dba2ac"><path d="M 29 79 L 65 79 L 65 100 L 29 100 Z M 29 79 "/></clipPath><clipPath id="c4725cc6f3"><path d="M -76.789062 187.496094 L 187.316406 -76.605469 L 451.421875 187.496094 L 187.316406 451.601562 Z M -76.789062 187.496094 "/></clipPath><clipPath id="caf5649372"><path d="M -76.789062 187.496094 L 187.316406 -76.605469 L 451.421875 187.496094 L 187.316406 451.601562 Z M -76.789062 187.496094 "/></clipPath><clipPath id="86cfeff462"><path d="M 29 144 L 130 144 L 130 166 L 29 166 Z M 29 144 "/></clipPath><clipPath id="7327283f19"><path d="M -76.789062 187.496094 L 187.316406 -76.605469 L 451.421875 187.496094 L 187.316406 451.601562 Z M -76.789062 187.496094 "/></clipPath><clipPath id="3dc7d6a1b4"><path d="M -76.789062 187.496094 L 187.316406 -76.605469 L 451.421875 187.496094 L 187.316406 451.601562 Z M -76.789062 187.496094 "/></clipPath><clipPath id="bd9a22c2aa"><path d="M 179 144 L 261 144 L 261 166 L 179 166 Z M 179 144 "/></clipPath><clipPath id="b511fb4312"><path d="M -76.789062 187.496094 L 187.316406 -76.605469 L 451.421875 187.496094 L 187.316406 451.601562 Z M -76.789062 187.496094 "/></clipPath><clipPath id="29a836bf9a"><path d="M -76.789062 187.496094 L 187.316406 -76.605469 L 451.421875 187.496094 L 187.316406 451.601562 Z M -76.789062 187.496094 "/></clipPath><clipPath id="d7f68950e1"><path d="M 310 144 L 346 144 L 346 166 L 310 166 Z M 310 144 "/></clipPath><clipPath id="8a378da264"><path d="M -76.789062 187.496094 L 187.316406 -76.605469 L 451.421875 187.496094 L 187.316406 451.601562 Z M -76.789062 187.496094 "/></clipPath><clipPath id="cbfd8cf37d"><path d="M -76.789062 187.496094 L 187.316406 -76.605469 L 451.421875 187.496094 L 187.316406 451.601562 Z M -76.789062 187.496094 "/></clipPath></defs><g id="5d007cc3ab"><g clip-rule="nonzero" clip-path="url(#bb9f5e0a40)"><g clip-rule="nonzero" clip-path="url(#b76125563b)"><g clip-rule="nonzero" clip-path="url(#da9d3b7ee2)"><path style=" stroke:none;fill-rule:nonzero;fill:#ffffff;fill-opacity:1;" d="M 99.769531 129.957031 L 99.796875 34.203125 C 99.796875 31.597656 97.691406 29.488281 95.085938 29.488281 L 83.882812 29.488281 C 81.273438 29.488281 79.167969 31.597656 79.167969 34.203125 L 79.140625 129.957031 Z M 99.769531 129.957031 "/></g></g></g><g clip-rule="nonzero" clip-path="url(#0cc443b947)"><g clip-rule="nonzero" clip-path="url(#7803582b69)"><g clip-rule="nonzero" clip-path="url(#a3a7a3e877)"><path style=" stroke:none;fill-rule:nonzero;fill:#ffffff;fill-opacity:1;" d="M 79.113281 260.410156 L 79.113281 179.777344 L 99.78125 179.777344 L 99.78125 260.410156 Z M 79.113281 260.410156 "/></g></g></g><g clip-rule="nonzero" clip-path="url(#bed616ca76)"><g clip-rule="nonzero" clip-path="url(#7f07150b25)"><g clip-rule="nonzero" clip-path="url(#ae34389712)"><path style=" stroke:none;fill-rule:nonzero;fill:#ffffff;fill-opacity:1;" d="M 79.113281 340.792969 C 79.113281 343.398438 81.21875 345.503906 83.824219 345.503906 L 95.027344 345.503906 C 97.636719 345.503906 99.742188 343.398438 99.742188 340.792969 L 99.742188 310.289062 L 79.082031 310.316406 Z M 79.113281 340.792969 "/></g></g></g><g clip-rule="nonzero" clip-path="url(#544829f3fc)"><g clip-rule="nonzero" clip-path="url(#6a647b590f)"><g clip-rule="nonzero" clip-path="url(#3075648216)"><path style=" stroke:none;fill-rule:nonzero;fill:#ffffff;fill-opacity:1;" d="M 144.359375 245.039062 L 144.390625 340.792969 C 144.390625 343.398438 146.496094 345.503906 149.101562 345.503906 L 160.304688 345.503906 C 162.914062 345.503906 165.019531 343.398438 165.019531 340.792969 L 165.019531 245.066406 Z M 144.359375 245.039062 "/></g></g></g><g clip-rule="nonzero" clip-path="url(#8d4b82ee78)"><g clip-rule="nonzero" clip-path="url(#e3572ed0ee)"><g clip-rule="nonzero" clip-path="url(#3a6c34dac5)"><path style=" stroke:none;fill-rule:nonzero;fill:#ffffff;fill-opacity:1;" d="M 144.355469 195.195312 L 144.351562 114.566406 L 165.019531 114.566406 L 165.023438 195.195312 Z M 144.355469 195.195312 "/></g></g></g><g clip-rule="nonzero" clip-path="url(#ee96d269d9)"><g clip-rule="nonzero" clip-path="url(#4b255912e3)"><g clip-rule="nonzero" clip-path="url(#ffa4c8fad6)"><path style=" stroke:none;fill-rule:nonzero;fill:#ffffff;fill-opacity:1;" d="M 165.019531 34.203125 C 165.019531 31.597656 162.914062 29.488281 160.304688 29.488281 L 149.101562 29.488281 C 146.496094 29.488281 144.390625 31.597656 144.390625 34.203125 L 144.390625 64.707031 L 165.046875 64.679688 Z M 165.019531 34.203125 "/></g></g></g><g clip-rule="nonzero" clip-path="url(#7303eba05a)"><g clip-rule="nonzero" clip-path="url(#6f32dfed01)"><g clip-rule="nonzero" clip-path="url(#a069610b9f)"><path style=" stroke:none;fill-rule:nonzero;fill:#ffffff;fill-opacity:1;" d="M 274.859375 245.039062 L 274.832031 340.792969 C 274.832031 343.398438 276.941406 345.503906 279.546875 345.503906 L 290.75 345.503906 C 293.355469 345.503906 295.464844 343.398438 295.464844 340.792969 L 295.464844 245.066406 Z M 274.859375 245.039062 "/></g></g></g><g clip-rule="nonzero" clip-path="url(#f6c1c6c071)"><g clip-rule="nonzero" clip-path="url(#1b9e13157a)"><g clip-rule="nonzero" clip-path="url(#eca20c699d)"><path style=" stroke:none;fill-rule:nonzero;fill:#ffffff;fill-opacity:1;" d="M 274.847656 195.179688 L 274.84375 114.550781 L 295.511719 114.550781 L 295.515625 195.179688 Z M 274.847656 195.179688 "/></g></g></g><g clip-rule="nonzero" clip-path="url(#91e0773357)"><g clip-rule="nonzero" clip-path="url(#55d21b32f1)"><g clip-rule="nonzero" clip-path="url(#d23507755f)"><path style=" stroke:none;fill-rule:nonzero;fill:#ffffff;fill-opacity:1;" d="M 295.519531 34.203125 C 295.519531 31.597656 293.414062 29.488281 290.804688 29.488281 L 279.601562 29.488281 C 276.996094 29.488281 274.886719 31.597656 274.886719 34.203125 L 274.886719 64.707031 L 295.546875 64.679688 Z M 295.519531 34.203125 "/></g></g></g><g clip-rule="nonzero" clip-path="url(#d98bcb635c)"><g clip-rule="nonzero" clip-path="url(#54d78562c5)"><g clip-rule="nonzero" clip-path="url(#ab0a2c2c3a)"><path style=" stroke:none;fill-rule:nonzero;fill:#ffffff;fill-opacity:1;" d="M 230.269531 129.957031 L 230.242188 34.203125 C 230.242188 31.597656 228.136719 29.488281 225.527344 29.488281 L 214.324219 29.488281 C 211.71875 29.488281 209.609375 31.597656 209.609375 34.203125 L 209.609375 129.929688 Z M 230.269531 129.957031 "/></g></g></g><g clip-rule="nonzero" clip-path="url(#1b85f34b12)"><g clip-rule="nonzero" clip-path="url(#d729662585)"><g clip-rule="nonzero" clip-path="url(#48d65143b8)"><path style=" stroke:none;fill-rule:nonzero;fill:#ffffff;fill-opacity:1;" d="M 209.605469 260.433594 L 209.605469 179.804688 L 230.273438 179.804688 L 230.273438 260.433594 Z M 209.605469 260.433594 "/></g></g></g><g clip-rule="nonzero" clip-path="url(#d8d34d20f7)"><g clip-rule="nonzero" clip-path="url(#1853f7ab86)"><g clip-rule="nonzero" clip-path="url(#6eb2ec7f9b)"><path style=" stroke:none;fill-rule:nonzero;fill:#ffffff;fill-opacity:1;" d="M 209.609375 340.792969 C 209.609375 343.398438 211.71875 345.503906 214.324219 345.503906 L 225.527344 345.503906 C 228.136719 345.503906 230.242188 343.398438 230.242188 340.792969 L 230.242188 310.289062 L 209.582031 310.316406 Z M 209.609375 340.792969 "/></g></g></g><g clip-rule="nonzero" clip-path="url(#b4bfef1652)"><g clip-rule="nonzero" clip-path="url(#593b5e1650)"><g clip-rule="nonzero" clip-path="url(#dc20ac1f11)"><path style=" stroke:none;fill-rule:nonzero;fill:#ffffff;fill-opacity:1;" d="M 129.773438 295.675781 L 129.773438 275.042969 L 34.023438 275.015625 C 31.414062 275.015625 29.308594 277.121094 29.308594 279.730469 L 29.308594 290.933594 C 29.308594 293.539062 31.414062 295.648438 34.023438 295.648438 Z M 129.773438 295.675781 "/></g></g></g><g clip-rule="nonzero" clip-path="url(#7160654494)"><g clip-rule="nonzero" clip-path="url(#8a186001d7)"><g clip-rule="nonzero" clip-path="url(#340a016e6a)"><path style=" stroke:none;fill-rule:nonzero;fill:#ffffff;fill-opacity:1;" d="M 179.632812 295.699219 L 179.632812 275.03125 L 260.261719 275.03125 L 260.261719 295.699219 Z M 179.632812 295.699219 "/></g></g></g><g clip-rule="nonzero" clip-path="url(#ed58365077)"><g clip-rule="nonzero" clip-path="url(#3f6259c41f)"><g clip-rule="nonzero" clip-path="url(#755978272c)"><path style=" stroke:none;fill-rule:nonzero;fill:#ffffff;fill-opacity:1;" d="M 310.105469 275.015625 L 310.078125 295.675781 L 340.582031 295.675781 C 343.1875 295.675781 345.296875 293.566406 345.296875 290.960938 L 345.296875 279.757812 C 345.296875 277.152344 343.1875 275.042969 340.582031 275.042969 Z M 310.105469 275.015625 "/></g></g></g><g clip-rule="nonzero" clip-path="url(#03806ee918)"><g clip-rule="nonzero" clip-path="url(#d3ff9d88f6)"><g clip-rule="nonzero" clip-path="url(#6b35efd71a)"><path style=" stroke:none;fill-rule:nonzero;fill:#ffffff;fill-opacity:1;" d="M 244.882812 209.792969 L 244.882812 230.425781 L 340.609375 230.425781 C 343.214844 230.425781 345.324219 228.316406 345.324219 225.710938 L 345.324219 214.507812 C 345.324219 211.902344 343.214844 209.792969 340.609375 209.792969 Z M 244.882812 209.792969 "/></g></g></g><g clip-rule="nonzero" clip-path="url(#35f5272142)"><g clip-rule="nonzero" clip-path="url(#c1820ec8f5)"><g clip-rule="nonzero" clip-path="url(#128cbe0e3f)"><path style=" stroke:none;fill-rule:nonzero;fill:#ffffff;fill-opacity:1;" d="M 114.378906 230.460938 L 114.378906 209.792969 L 195.007812 209.792969 L 195.007812 230.460938 Z M 114.378906 230.460938 "/></g></g></g><g clip-rule="nonzero" clip-path="url(#6fbddf6d2c)"><g clip-rule="nonzero" clip-path="url(#24001e609e)"><g clip-rule="nonzero" clip-path="url(#6f19fc1d34)"><path style=" stroke:none;fill-rule:nonzero;fill:#ffffff;fill-opacity:1;" d="M 64.496094 230.453125 L 64.527344 209.792969 L 34.023438 209.792969 C 31.414062 209.792969 29.308594 211.902344 29.308594 214.507812 L 29.308594 225.710938 C 29.308594 228.316406 31.414062 230.425781 34.023438 230.425781 Z M 64.496094 230.453125 "/></g></g></g><g clip-rule="nonzero" clip-path="url(#3baeac103b)"><g clip-rule="nonzero" clip-path="url(#943f2fcd7a)"><g clip-rule="nonzero" clip-path="url(#7e13e1d82f)"><path style=" stroke:none;fill-rule:nonzero;fill:#ffffff;fill-opacity:1;" d="M 244.855469 79.320312 L 244.855469 99.953125 L 340.582031 99.953125 C 343.1875 99.953125 345.296875 97.84375 345.296875 95.238281 L 345.296875 84.035156 C 345.296875 81.429688 343.1875 79.320312 340.582031 79.320312 Z M 244.855469 79.320312 "/></g></g></g><g clip-rule="nonzero" clip-path="url(#23e66cde78)"><g clip-rule="nonzero" clip-path="url(#d23b174295)"><g clip-rule="nonzero" clip-path="url(#394840246e)"><path style=" stroke:none;fill-rule:nonzero;fill:#ffffff;fill-opacity:1;" d="M 114.40625 99.96875 L 114.40625 79.300781 L 195.035156 79.300781 L 195.035156 99.96875 Z M 114.40625 99.96875 "/></g></g></g><g clip-rule="nonzero" clip-path="url(#68f7dba2ac)"><g clip-rule="nonzero" clip-path="url(#c4725cc6f3)"><g clip-rule="nonzero" clip-path="url(#caf5649372)"><path style=" stroke:none;fill-rule:nonzero;fill:#ffffff;fill-opacity:1;" d="M 64.527344 99.980469 L 64.554688 79.320312 L 34.050781 79.320312 C 31.441406 79.320312 29.335938 81.429688 29.335938 84.035156 L 29.335938 95.238281 C 29.335938 97.84375 31.441406 99.953125 34.050781 99.953125 Z M 64.527344 99.980469 "/></g></g></g><g clip-rule="nonzero" clip-path="url(#86cfeff462)"><g clip-rule="nonzero" clip-path="url(#7327283f19)"><g clip-rule="nonzero" clip-path="url(#3dc7d6a1b4)"><path style=" stroke:none;fill-rule:nonzero;fill:#ffffff;fill-opacity:1;" d="M 129.746094 165.203125 L 129.746094 144.570312 L 34.023438 144.570312 C 31.414062 144.570312 29.308594 146.679688 29.308594 149.285156 L 29.308594 160.488281 C 29.308594 163.09375 31.414062 165.203125 34.023438 165.203125 Z M 129.746094 165.203125 "/></g></g></g><g clip-rule="nonzero" clip-path="url(#bd9a22c2aa)"><g clip-rule="nonzero" clip-path="url(#b511fb4312)"><g clip-rule="nonzero" clip-path="url(#29a836bf9a)"><path style=" stroke:none;fill-rule:nonzero;fill:#ffffff;fill-opacity:1;" d="M 179.617188 165.207031 L 179.617188 144.539062 L 260.25 144.539062 L 260.25 165.207031 Z M 179.617188 165.207031 "/></g></g></g><g clip-rule="nonzero" clip-path="url(#d7f68950e1)"><g clip-rule="nonzero" clip-path="url(#8a378da264)"><g clip-rule="nonzero" clip-path="url(#cbfd8cf37d)"><path style=" stroke:none;fill-rule:nonzero;fill:#ffffff;fill-opacity:1;" d="M 310.132812 144.542969 L 310.105469 165.203125 L 340.609375 165.203125 C 343.214844 165.203125 345.324219 163.09375 345.324219 160.488281 L 345.324219 149.285156 C 345.324219 146.679688 343.214844 144.570312 340.609375 144.570312 Z M 310.132812 144.542969 "/></g></g></g></g></svg>